<svg xmlns="http://www.w3.org/2000/svg" width="33.775" height="40.815">
    <path d="M17.5 1.979a1.391 1.391 0 0 0-1.369 1.411v1.221a2.3 2.3 0 0 1-.694 1.653c-2.213 2.167-7.049 6.908-8.421 8.3a6.311 6.311 0 0 0-1.9 5.52 4.805 4.805 0 0 0 2.825 3.484A5.161 5.161 0 0 0 9.672 27.1v.056s-.073 4.187 0 6.515a7.334 7.334 0 0 0 1.863 4.692 3.4 3.4 0 0 1 .887 2.227v.81a1.391 1.391 0 1 0 2.782 0v-.8a6.183 6.183 0 0 0-1.577-4.06 4.162 4.162 0 0 1-1.175-2.946c-.024-.759-.019-1.817-.018-2.812A5.7 5.7 0 0 0 15 32.513a4.576 4.576 0 0 0 2.676 3.479 5.258 5.258 0 0 0 5.424-1.405c1.2-1.171 6.99-6.369 6.99-6.369a1.391 1.391 0 0 0 .388-1.487 36.215 36.215 0 0 1-1.764-9.2 6.258 6.258 0 0 1 .177-1.521 1 1 0 0 1 .963-.813 1.029 1.029 0 0 1 1.108.57l1.807 4.353a1.392 1.392 0 0 0 .082.163l2.749 4.76a3.826 3.826 0 0 1 .158 3.182l-2.508 6.269a6.01 6.01 0 0 0-.431 2.238v4.67a1.391 1.391 0 1 0 2.782 0v-4.67a3.222 3.222 0 0 1 .23-1.2l2.506-6.267a6.669 6.669 0 0 0-.255-5.467q-.019-.038-.04-.074l-1.519-2.629V3.389a1.391 1.391 0 1 0-2.782 0v11.834l-.252-.6q-.018-.045-.04-.089a3.912 3.912 0 0 0-7.263.808 9.069 9.069 0 0 0-.261 2.195 31.238 31.238 0 0 0 1.653 9.2c-.863.773-5.125 4.587-6.43 5.862a2.4 2.4 0 0 1-2.523.779 1.821 1.821 0 0 1-1.166-1.954 1.391 1.391 0 0 0-1.11-1.358c-1.677-.347-1.915-.959-2.079-1.583a2.837 2.837 0 0 1-.022-1.226 1.391 1.391 0 0 0-1.3-1.757 3.466 3.466 0 0 1-1.333-.4c-.615-.354-1.133-.723-.953-2.374A1.391 1.391 0 0 0 9.531 21.2a1.844 1.844 0 0 1-1.677-1.628 3.553 3.553 0 0 1 1.137-3.06c1.3-1.313 6.178-6.1 8.39-8.265a5.1 5.1 0 0 0 1.528-3.64V3.389a1.391 1.391 0 0 0-1.409-1.41z" transform="translate(-5.03 -1.978)" style="fill:#17a2b8"/>
</svg>
