<svg xmlns="http://www.w3.org/2000/svg" width="40" height="34.527">
    <path d="M12.048 3.3a1.744 1.744 0 0 0-1.5 1.157 1.738 1.738 0 0 0-3.3 1.1 1.74 1.74 0 0 0-1.99 2.853 1.731 1.731 0 0 0-.389 3.4 1.735 1.735 0 1 0 2.15 2.111 5.269 5.269 0 0 0 3.543 1.292 5.269 5.269 0 0 0 3.543-1.292A1.736 1.736 0 1 0 16.2 11.79a1.736 1.736 0 0 0-.34-3.421 1.738 1.738 0 0 0-2.009-2.836 1.737 1.737 0 0 0-1.8-2.233zm-1.483 4.086a2.4 2.4 0 0 1 1.96.785 2.889 2.889 0 0 1 0 3.648 2.4 2.4 0 0 1-1.96.785 2.4 2.4 0 0 1-1.96-.785 2.889 2.889 0 0 1 0-3.648 2.4 2.4 0 0 1 1.96-.785zm19.13.87a5.179 5.179 0 0 0-3.91 1.661 5.49 5.49 0 0 0 0 7.113 5.432 5.432 0 0 0 7.819 0 5.49 5.49 0 0 0 0-7.113A5.179 5.179 0 0 0 29.7 8.256zm0 2.609a2.4 2.4 0 0 1 1.96.785 2.889 2.889 0 0 1 0 3.648 2.4 2.4 0 0 1-1.96.785 2.4 2.4 0 0 1-1.96-.785 2.889 2.889 0 0 1 0-3.648 2.4 2.4 0 0 1 1.965-.786zM5.783 16.951a3.064 3.064 0 0 0-3.043 3.043v2.483A3.057 3.057 0 0 0 1 25.212v11.3a1.3 1.3 0 0 0 1.3 1.3h37.4a1.3 1.3 0 0 0 1.3-1.3v-7.821a3.064 3.064 0 0 0-3.043-3.043h-.435v-2.175a3.064 3.064 0 0 0-3.043-3.043h-9.566a3.064 3.064 0 0 0-3.043 3.043v2.174h-1.74v-.435a3.057 3.057 0 0 0-1.739-2.734v-2.483a3.064 3.064 0 0 0-3.043-3.043zm0 2.609h9.565a.415.415 0 0 1 .435.435v2.174H5.348v-2.174a.415.415 0 0 1 .435-.435zm19.13 3.478h9.565a.415.415 0 0 1 .435.435v2.174H24.478v-2.174a.415.415 0 0 1 .435-.435zm-20.87 1.739h13.044a.415.415 0 0 1 .435.435v10H3.609v-10a.415.415 0 0 1 .434-.435zm16.087 3.479h17.827a.415.415 0 0 1 .435.435v6.522H20.13z" transform="translate(-1 -3.294)" style="fill:#17a2b8"/>
</svg>
