<svg xmlns="http://www.w3.org/2000/svg" width="211.478" height="256">
    <path d="M39.391 2A33.478 33.478 0 0 0 6 35.391v191.544C6 244.6 21.762 258 39.391 258h178.087v-11.13H39.391c-12.011 0-22.261-9.027-22.261-19.935s10.018-19.022 22.261-19.022h178.087V2zm0 11.13h166.957v183.653H39.391a35.668 35.668 0 0 0-22.261 7.891V35.391A22.181 22.181 0 0 1 39.391 13.13zm72.348 38.957a105.607 105.607 0 0 0-6.6 11.956 21.748 21.748 0 0 0-9.652-.326 29 29 0 0 0-13.011 6.327c-5.408 4.424-15.141 4.315-15.141 4.315l-.022.272-.1-.206-27.822 55.651v1.315c0 14.734 12.713 26.435 27.826 26.435s27.826-11.7 27.826-26.435v-1.315L72.6 85.185a29.152 29.152 0 0 0 16.924-6.533c5.5-4.5 9.043-4.745 11.826-4.1a24.283 24.283 0 0 0-.739 5.359 11.13 11.13 0 0 0 22.261 0 24.283 24.283 0 0 0-.739-5.359c2.783-.648 6.322-.405 11.826 4.1a29.152 29.152 0 0 0 16.924 6.533l-22.446 44.891v1.315c0 14.734 12.713 26.435 27.826 26.435s27.826-11.7 27.826-26.435v-1.315l-27.828-55.652-.1.206-.022-.272s-9.734.109-15.141-4.315c-8.246-6.747-16.646-7.615-22.663-6a105.605 105.605 0 0 0-6.596-11.956zM67.217 99.315l12.565 25.12h-25.13zm89.043 0 12.565 25.12H143.7zm-103.88 36.25h29.674c-2.106 6.119-7.2 11.13-14.837 11.13s-12.731-5.011-14.836-11.13zm89.043 0H171.1c-2.106 6.119-7.2 11.13-14.837 11.13s-12.733-5.011-14.839-11.13z" transform="translate(-6 -2)" style="opacity:.03"/>
</svg>
