<svg xmlns="http://www.w3.org/2000/svg" width="32.425" height="33.145">
    <path d="M20.852 4c-3.387 0-6.059 1.239-7.529 3.494a7.4 7.4 0 0 0-.591 6.651 2.647 2.647 0 0 0-.448 1.772 2.989 2.989 0 0 0 1.29 2.457 6.949 6.949 0 0 0 1.513 3.272v2.1c-.273.22-.728.593-1.157.981a8.583 8.583 0 0 0-.778.728l1.041 3.566a.721.721 0 0 1-.273.788l-1.4 1 3.14 4.18h4.47v-8.652a2.635 2.635 0 0 1 .094-.721h-1.382c-.973-.231-2.314-.857-2.314-1.441V21.31a.827.827 0 0 0-.353-.619 5.547 5.547 0 0 1-1.24-2.926.657.657 0 0 0-.663-.647c-.1-.043-.425-.382-.554-1.362a.781.781 0 0 1-.007-.129.993.993 0 0 1 .259-.728.709.709 0 0 0 .26-.887 6.016 6.016 0 0 1 .3-5.729c1.131-1.744 3.206-2.738 5.88-2.839l.518 1.037a.713.713 0 0 0 .642.4A3.1 3.1 0 0 1 24.541 8.8c.9 1.83.657 4.373.066 5.13a.721.721 0 0 0 .324 1.124 1.4 1.4 0 0 1 .1.771c-.094 1.066-.433 1.348-.505 1.362a.715.715 0 0 0-.713.612 7.476 7.476 0 0 1-1.16 3.076.722.722 0 0 0-.36.626v2.048a2.635 2.635 0 0 1 .721-.094h.721v-1.636a8.495 8.495 0 0 0 1.42-3.344c.519-.245 1.167-.879 1.319-2.529A2.7 2.7 0 0 0 26.1 14.2a7.922 7.922 0 0 0-.266-6.039 4.551 4.551 0 0 0-3.811-2.7L21.494 4.4a.713.713 0 0 0-.642-.4zm7.205 18.014a1.452 1.452 0 0 0-1.441 1.441V24.9h-3.6a1.445 1.445 0 0 0-1.441 1.441v4.319a.723.723 0 0 0 .721.721h5.764v-.721a.723.723 0 0 1 .721-.721h1.441a.723.723 0 0 1 .721.721v.721H36.7a.723.723 0 0 0 .721-.721v-4.323a1.445 1.445 0 0 0-1.438-1.437h-3.6v-1.445a1.452 1.452 0 0 0-1.441-1.441zm0 1.441h2.883V24.9h-2.883zm-12.53 1.933a4.846 4.846 0 0 0 2.173 1.385l.991 2.446-1.4 4.886a35.992 35.992 0 0 1-1.764-8.717zm-3.58 1.078C7.638 27.67 5 31.337 5 34.263a.723.723 0 0 0 .721.721h8.127l-2.924-3.877a.705.705 0 0 1-.152-.547.731.731 0 0 1 .3-.483l1.6-1.146zm9.626 6.226V35.7a1.445 1.445 0 0 0 1.441 1.441h12.97a1.445 1.445 0 0 0 1.441-1.441v-3.008a2 2 0 0 1-.721.129H22.293a2 2 0 0 1-.72-.129z" transform="translate(-5 -4)" style="fill:#17a2b8"/>
</svg>
