<svg xmlns="http://www.w3.org/2000/svg" width="256" height="256">
    <path d="M112.714 3C97.476 3 84.5 9.153 76.167 18.524a49.808 49.808 0 0 0-12.215 33.238A49.808 49.808 0 0 0 76.167 85c8.33 9.37 21.31 15.524 36.548 15.524S140.933 94.37 149.261 85a49.807 49.807 0 0 0 12.215-33.238 49.807 49.807 0 0 0-12.215-33.238C140.933 9.153 127.952 3 112.714 3zm60.952 97.524a24.562 24.562 0 0 0-24.38 24.376v12.2H137.1a24.453 24.453 0 0 0-24.381 24.381v24.381a12.226 12.226 0 0 0 12.19 12.19h48.762v-12.19h24.381v12.19h48.758A12.226 12.226 0 0 0 259 185.857v-24.381a24.453 24.453 0 0 0-24.381-24.376h-12.19v-12.2a24.562 24.562 0 0 0-24.381-24.381zm0 24.381h24.381V137.1h-24.38zm-79.476 13.4C55.181 142.942 3 161.232 3 191.952v30.476h85.333v-60.952a49.1 49.1 0 0 1 5.858-23.167zm18.523 81.929v14.381A24.453 24.453 0 0 0 137.1 259h97.524A24.453 24.453 0 0 0 259 234.619v-14.381a33.789 33.789 0 0 1-12.19 2.191H124.9a33.789 33.789 0 0 1-12.186-2.191z" transform="translate(-3 -3)" style="opacity:.04"/>
</svg>
