<svg xmlns="http://www.w3.org/2000/svg" width="151.419" height="150">
    <path d="M75.71 0a30.127 30.127 0 0 0-28.77 39.558 148.012 148.012 0 0 1 27.918 7.76l.852.284.852-.284a150.031 150.031 0 0 1 27.918-7.665 30.766 30.766 0 0 0 1.514-9.369A30.312 30.312 0 0 0 75.71 0zM9.085 42.4a3.034 3.034 0 0 0-3.028 3.028V63.6h3.028a14.977 14.977 0 0 1 15.142 15.138v6.057A14.977 14.977 0 0 1 9.085 99.937H6.057v30.284a3.027 3.027 0 0 0 3.028 3.028c35.868 0 58.332 13.285 63.6 16.751V52.9c-8.829-3.476-30.761-10.5-63.6-10.5zm133.249 0c-32.839 0-54.771 7.027-63.6 10.5V150c5.264-3.466 27.741-16.751 63.6-16.751a3.019 3.019 0 0 0 3.028-3.028V99.937h-3.028a14.977 14.977 0 0 1-15.142-15.142v-6.057A14.977 14.977 0 0 1 142.334 63.6h3.028V45.426a3.027 3.027 0 0 0-3.028-3.026zM6.057 69.653A6.068 6.068 0 0 0 0 75.71v12.113a6.068 6.068 0 0 0 6.057 6.057h3.028a8.926 8.926 0 0 0 9.085-9.085v-6.057a8.926 8.926 0 0 0-9.085-9.085zm136.277 0a9.961 9.961 0 0 0-1.893.189 8.864 8.864 0 0 0-7.192 8.9v6.057a8.926 8.926 0 0 0 9.085 9.085h3.028a6.068 6.068 0 0 0 6.057-6.057V75.71a6.068 6.068 0 0 0-6.057-6.057z" style="fill:#1e1800"/>
</svg>
