<svg xmlns="http://www.w3.org/2000/svg" width="256" height="256">
    <path d="M129.922 2a16.756 16.756 0 0 0-16.639 16.7v8.67c-7.54-4.978-16.336-10.478-26.518-12.848a59.611 59.611 0 0 0-14.972-1.392c-4.9.109-9.641.652-14.082 1.174-3.965.5-7.583.891-10.876 1.152l-.108-.239-.108.261c-4.03.3-7.5.391-9.728-.13A5.568 5.568 0 0 0 34.377 26.2a34.8 34.8 0 0 0 7.54.739L1.922 124.413l.823 2.087s12.544 31.326 43.981 31.326 43.96-31.326 43.96-31.326l.845-2.087-40.277-98.152c2.579-.3 5.113-.587 7.778-.913 8.688-1.043 17.592-1.761 25.218 0 9.9 2.326 19.716 9.391 29.032 15.326v189.5H80a22.294 22.294 0 0 0-22.186 22.261V258h144.211v-5.565a22.294 22.294 0 0 0-22.186-22.261h-33.278V48.457c10.768-1.218 22.315-3.087 31.978-.826 7.822 1.8 15.513 6.044 22.857 10.37a485.058 485.058 0 0 0 8.168 4.8L168.313 163.37l.845 2.087s12.523 31.326 43.96 31.326 43.96-31.326 43.96-31.326l.845-2.087-39.453-96.2a32.718 32.718 0 0 0 4.485 1.457 5.557 5.557 0 0 0 2.512-10.827c-4.355-1.021-10.92-4.935-18.416-9.369-7.518-4.457-16.119-9.37-26-11.652a67.041 67.041 0 0 0-20.712-1.13c-4.94.391-9.511 1.022-13.779 1.543V18.7A16.756 16.756 0 0 0 129.922 2zm0 11.13a5.485 5.485 0 0 1 5.546 5.565v211.479h-11.092V18.7a5.485 5.485 0 0 1 5.546-5.57zm-83.2 31.3 30.531 74.44H16.178zm166.396 38.961 30.527 74.435h-61.054zM17.413 130H76.04c-4.42 6.826-13.454 16.7-29.314 16.7s-24.893-9.874-29.313-16.7zM183.8 168.957h58.627c-4.42 6.826-13.454 16.7-29.314 16.7s-24.889-9.874-29.313-16.7zM80 241.3h99.835c4.008 0 6.868 2.435 8.818 5.565H71.187C73.136 243.739 76 241.3 80 241.3z" transform="translate(-1.922 -2)" style="opacity:.03"/>
</svg>
