<svg xmlns="http://www.w3.org/2000/svg" width="256" height="196.923">
    <path d="M4 6v19.692h216.615v157.539H82.769v19.692H260v-19.692h-19.692V6zm39.4 29.538a39.385 39.385 0 1 0 39.369 39.385A39.543 39.543 0 0 0 43.4 35.538zm59.058 9.846v19.693h49.231V45.385zm68.923 0v19.693h29.538V45.385zM43.4 55.231a19.692 19.692 0 1 1-19.708 19.692A19.542 19.542 0 0 1 43.4 55.231zm59.058 29.538v19.692h98.462V84.769zM4 124.154v78.769h19.692v-59.077h29.539v59.077h19.692v-52.6l20.327 10.75a19.7 19.7 0 0 0 18.422 0v.02l34.77-18.385-9.192-17.424-34.769 18.385L72 127.577a29.582 29.582 0 0 0-13.808-3.424z" transform="translate(-4 -6)" style="opacity:.06"/>
</svg>
